<?xml version="1.0" encoding="UTF-8" standalone="no"?>
<svg
   width="290.13654mm"
   height="88.478569mm"
   viewBox="0 0 290.13654 88.478569"
   version="1.1"
   id="svg421"
   inkscape:version="1.1.2 (0a00cf5339, 2022-02-04)"
   sodipodi:docname="superset-logo-horiz.svg"
   inkscape:export-filename="/home/izhar/Devel/rpms/aedv-logos/src/superset-logo-horiz.png"
   inkscape:export-xdpi="300"
   inkscape:export-ydpi="300"
   xmlns:inkscape="http://www.inkscape.org/namespaces/inkscape"
   xmlns:sodipodi="http://sodipodi.sourceforge.net/DTD/sodipodi-0.dtd"
   xmlns="http://www.w3.org/2000/svg"
   xmlns:svg="http://www.w3.org/2000/svg"
   xmlns:rdf="http://www.w3.org/1999/02/22-rdf-syntax-ns#"
   xmlns:cc="http://creativecommons.org/ns#"
   xmlns:dc="http://purl.org/dc/elements/1.1/">
  <defs
     id="defs415">
    <clipPath
       id="clipPath28"
       clipPathUnits="userSpaceOnUse">
      <path
         id="path26"
         d="M 0,595.276 H 841.89 V 0 H 0 Z" />
    </clipPath>
  </defs>
  <sodipodi:namedview
     id="base"
     pagecolor="#ffffff"
     bordercolor="#666666"
     borderopacity="1.0"
     inkscape:pageopacity="0.0"
     inkscape:pageshadow="2"
     inkscape:zoom="0.35"
     inkscape:cx="912.85714"
     inkscape:cy="120"
     inkscape:document-units="mm"
     inkscape:current-layer="layer1"
     inkscape:document-rotation="0"
     showgrid="false"
     fit-margin-top="20"
     fit-margin-left="20"
     fit-margin-right="20"
     fit-margin-bottom="20"
     inkscape:window-width="2560"
     inkscape:window-height="1371"
     inkscape:window-x="1366"
     inkscape:window-y="32"
     inkscape:window-maximized="1"
     inkscape:pagecheckerboard="0"
     lock-margins="true" />
  <metadata
     id="metadata418">
    <rdf:RDF>
      <cc:Work
         rdf:about="">
        <dc:format>image/svg+xml</dc:format>
        <dc:type
           rdf:resource="http://purl.org/dc/dcmitype/StillImage" />
      </cc:Work>
    </rdf:RDF>
  </metadata>
  <g
     inkscape:label="Layer 1"
     inkscape:groupmode="layer"
     id="layer1"
     transform="translate(135.99684,-116.02262)">
    <g
       id="g795"
       transform="translate(-88.02948,23.8789)"
       inkscape:export-filename="/tmp/allprod.png"
       inkscape:export-xdpi="34.322021"
       inkscape:export-ydpi="34.322021">
      <g
         transform="translate(-24.962099,60.2495)"
         id="g332">
        <g
           transform="matrix(0.35277777,0,0,-0.35277777,-173.54167,201.84461)"
           clip-path="url(#clipPath28)"
           id="g24">
          <g
             transform="translate(682.339,364.575)"
             id="g64">
            <path
               id="path66"
               style="fill:#2a4da1;fill-opacity:1;fill-rule:nonzero;stroke:none"
               d="m 0,0 h -73.693 v 16.218 h 60.129 c 1.536,0 2.988,0.669 3.996,1.827 1.443,1.66 3.036,5.552 2.6,9.276 0,0 0.143,2.557 -1.431,6.213 -0.84,1.949 -2.747,3.228 -4.871,3.228 h -61.61 c 0,0 -2.058,12.078 -13.384,20.003 H 1.742 c 0,0 0.04,0 0.106,-0.014 1.2,-0.237 12.724,-2.927 15.256,-21.268 0.356,-2.532 0.528,-5.38 0.488,-8.545 0,0 0.505,-16.393 -12.618,-25.417 C 3.514,0.518 1.771,0 0,0" />
          </g>
          <g
             transform="translate(603.07,392.607)"
             id="g68">
            <path
               id="path70"
               style="fill:#222552;fill-opacity:1;fill-rule:nonzero;stroke:none"
               d="m 0,0 c 0,-2.031 -0.013,-4.061 -0.013,-6.105 -0.105,0 -0.224,0.013 -0.33,0.013 v 0.172 c -0.079,11.339 -3.665,15.414 -14.86,16.917 -2.677,0.343 -5.393,0.448 -8.096,0.461 -12.223,0.014 -24.433,0.014 -36.657,0.014 h -0.013 c -6.408,0.013 -12.816,0.013 -19.238,0.013 -6.224,0.013 -6.619,0.422 -6.672,6.672 -0.04,3.006 0.066,6.012 0,9.019 -0.066,2.94 1.121,4.351 3.547,4.707 7.556,-0.026 15.111,-0.039 22.68,-0.052 8.675,-0.027 17.366,-0.053 26.055,-0.093 2.967,-0.026 5.987,-0.619 8.913,-1.226 C -7.924,27.004 -0.026,17.221 0,0" />
          </g>
          <g
             transform="translate(667.785,331.842)"
             id="g72">
            <path
               id="path74"
               style="fill:#222552;fill-opacity:1;fill-rule:nonzero;stroke:none"
               d="m 0,0 c -0.062,-5.734 -0.515,-6.231 -6.16,-6.257 -3.236,-0.018 -6.86,0.07 -10.121,0.079 v -0.026 l -0.426,0.026 c -2.26,0 -4.502,0 -6.745,-0.017 h -0.744 c -0.496,0 -1.011,0 -1.516,0.017 -1.409,0 -2.827,0 -4.236,0.018 h 1.276 c 0.009,0.027 0.035,0.044 0.044,0.062 h -0.239 c -3.723,0.044 -7.507,0.496 -11.185,1.179 -14.376,2.668 -22.53,10.813 -24.276,24.32 2.242,-2.5 5.752,-3.9 10.831,-4.644 3.456,-0.497 6.887,-0.568 10.351,-0.568 h 2.216 c 11.38,0 22.751,0 34.105,-0.008 6.506,0 6.789,-0.32 6.825,-6.94 C 0.026,4.812 0.026,2.419 0,0" />
          </g>
          <g
             transform="translate(639.157,325.744)"
             id="g80">
            <path
               id="path82"
               style="fill:#2a4da1;fill-opacity:1;fill-rule:nonzero;stroke:none"
               d="M 0,0 C -0.009,-0.018 -0.035,-0.035 -0.044,-0.062 H -1.32 C -9.084,-0.071 -16.849,-0.071 -24.621,0 c -3.74,0.044 -7.507,0.497 -11.186,1.179 -16.015,2.969 -24.293,12.727 -24.63,29.115 -0.195,10.219 0,20.456 -0.071,30.684 -0.088,11.353 -3.66,15.421 -14.872,16.919 -2.233,0.292 -4.511,0.408 -6.789,0.443 0,0.009 -0.009,0.018 -0.009,0.027 7.694,0 15.396,0 23.097,-0.009 2.694,-0.018 5.416,-0.115 8.083,-0.461 11.203,-1.498 14.784,-5.566 14.873,-16.919 0.07,-10.228 -0.134,-20.465 0.07,-30.684 0.035,-1.666 0.151,-3.262 0.355,-4.795 1.746,-13.507 9.9,-21.652 24.276,-24.32 C -7.746,0.497 -3.962,0.044 -0.239,0 Z" />
          </g>
          <g
             transform="translate(501.007,382.431)"
             id="g84">
            <path
               id="path86"
               style="fill:#2a4da1;fill-opacity:1;fill-rule:nonzero;stroke:none"
               d="m 0,0 h 73.694 v -16.219 h -60.13 c -1.535,0 -2.988,-0.668 -3.996,-1.826 -1.443,-1.66 -3.036,-5.552 -2.599,-9.277 0,0 -0.143,-2.557 1.431,-6.212 0.762,-1.769 2.944,-3.228 4.87,-3.228 h 61.611 c 0,0 2.057,-12.078 13.384,-20.003 H -1.742 c 0,0 -0.039,0 -0.106,0.013 -1.199,0.237 -12.723,2.927 -15.256,21.269 -0.355,2.532 -0.527,5.38 -0.487,8.545 0,0 -0.506,16.393 12.618,25.417 C -3.514,-0.518 -1.771,0 0,0" />
          </g>
        </g>
        <g
           id="g295"
           transform="matrix(1.055326,0,0,1.055326,-54.904397,-41.395013)">
          <g
             transform="matrix(1.98718,0,0,1.98718,-95.389151,-85.803847)"
             id="g272">
            <path
               id="path201"
               style="font-style:normal;font-variant:normal;font-weight:bold;font-stretch:normal;font-size:10.5833px;line-height:1.25;font-family:Rubik;-inkscape-font-specification:'Rubik, Bold';font-variant-ligatures:normal;font-variant-caps:normal;font-variant-numeric:normal;font-variant-east-asian:normal;letter-spacing:0px;word-spacing:0px;fill:#000000;fill-opacity:1;stroke:none;stroke-width:0.264583"
               d="m 112.21754,95.071404 q -0.11642,0 -0.1905,-0.07408 -0.0741,-0.08467 -0.0741,-0.190499 V 87.92768 q 0,-0.116416 0.0741,-0.190499 0.0741,-0.07408 0.1905,-0.07408 h 2.75166 q 1.03716,0 1.76741,0.338665 0.73025,0.328083 1.12183,0.973664 0.39158,0.634998 0.42333,1.576912 0.0106,0.465665 0.0106,0.814914 0,0.349249 -0.0106,0.80433 -0.0423,0.984247 -0.42333,1.629829 -0.37042,0.645581 -1.09008,0.96308 -0.70908,0.306916 -1.74624,0.306916 z m 1.64041,-1.523996 h 1.11125 q 0.45508,0 0.75141,-0.137583 0.30692,-0.148166 0.45509,-0.455081 0.15874,-0.306916 0.16933,-0.804331 0.0212,-0.306916 0.0212,-0.550332 0.0106,-0.243416 0,-0.486832 0,-0.243415 -0.0212,-0.539748 -0.0212,-0.719664 -0.381,-1.047747 -0.34925,-0.338665 -1.04775,-0.338665 h -1.05833 z" />
            <path
               id="path203"
               style="font-style:normal;font-variant:normal;font-weight:bold;font-stretch:normal;font-size:10.5833px;line-height:1.25;font-family:Rubik;-inkscape-font-specification:'Rubik, Bold';font-variant-ligatures:normal;font-variant-caps:normal;font-variant-numeric:normal;font-variant-east-asian:normal;letter-spacing:0px;word-spacing:0px;fill:#000000;fill-opacity:1;stroke:none;stroke-width:0.264583"
               d="m 118.9485,95.071404 q -0.0847,0 -0.15875,-0.0635 -0.0635,-0.07408 -0.0635,-0.15875 0,-0.05292 0.0106,-0.09525 l 2.48707,-6.794479 q 0.0318,-0.116416 0.127,-0.201083 0.10583,-0.09525 0.28575,-0.09525 h 1.56633 q 0.17991,0 0.27516,0.09525 0.10584,0.08467 0.13759,0.201083 l 2.47649,6.794479 q 0.0212,0.04233 0.0212,0.09525 0,0.08467 -0.0741,0.15875 -0.0635,0.0635 -0.15875,0.0635 h -1.30174 q -0.15875,0 -0.24342,-0.07408 -0.0741,-0.08467 -0.0953,-0.148166 l -0.41275,-1.079496 h -2.82574 l -0.40216,1.079496 q -0.0212,0.0635 -0.0953,0.148166 -0.0741,0.07408 -0.254,0.07408 z m 2.48708,-2.825741 h 1.96849 l -0.98425,-2.793992 z" />
            <path
               id="path205"
               style="font-style:normal;font-variant:normal;font-weight:bold;font-stretch:normal;font-size:10.5833px;line-height:1.25;font-family:Rubik;-inkscape-font-specification:'Rubik, Bold';font-variant-ligatures:normal;font-variant-caps:normal;font-variant-numeric:normal;font-variant-east-asian:normal;letter-spacing:0px;word-spacing:0px;fill:#000000;fill-opacity:1;stroke:none;stroke-width:0.264583"
               d="m 128.09246,95.071404 q -0.11642,0 -0.1905,-0.07408 -0.0741,-0.08467 -0.0741,-0.190499 v -5.482149 h -1.88383 q -0.11642,0 -0.1905,-0.07408 -0.0741,-0.08467 -0.0741,-0.1905 v -1.132413 q 0,-0.116416 0.0741,-0.190499 0.0741,-0.07408 0.1905,-0.07408 h 5.69381 q 0.11642,0 0.1905,0.07408 0.0741,0.07408 0.0741,0.190499 v 1.132413 q 0,0.105833 -0.0741,0.1905 -0.0741,0.07408 -0.1905,0.07408 h -1.88382 v 5.482149 q 0,0.105833 -0.0741,0.190499 -0.0741,0.07408 -0.1905,0.07408 z" />
            <path
               id="path207"
               style="font-style:normal;font-variant:normal;font-weight:bold;font-stretch:normal;font-size:10.5833px;line-height:1.25;font-family:Rubik;-inkscape-font-specification:'Rubik, Bold';font-variant-ligatures:normal;font-variant-caps:normal;font-variant-numeric:normal;font-variant-east-asian:normal;letter-spacing:0px;word-spacing:0px;fill:#000000;fill-opacity:1;stroke:none;stroke-width:0.264583"
               d="m 131.69076,95.071404 q -0.0847,0 -0.15875,-0.0635 -0.0635,-0.07408 -0.0635,-0.15875 0,-0.05292 0.0106,-0.09525 l 2.48708,-6.794479 q 0.0317,-0.116416 0.127,-0.201083 0.10583,-0.09525 0.28575,-0.09525 h 1.56633 q 0.17991,0 0.27516,0.09525 0.10583,0.08467 0.13758,0.201083 l 2.4765,6.794479 q 0.0212,0.04233 0.0212,0.09525 0,0.08467 -0.0741,0.15875 -0.0635,0.0635 -0.15875,0.0635 h -1.30175 q -0.15874,0 -0.24341,-0.07408 -0.0741,-0.08467 -0.0953,-0.148166 l -0.41275,-1.079496 h -2.82574 l -0.40217,1.079496 q -0.0212,0.0635 -0.0952,0.148166 -0.0741,0.07408 -0.25399,0.07408 z m 2.48707,-2.825741 h 1.9685 l -0.98425,-2.793992 z" />
          </g>
          <g
             transform="matrix(1.98718,0,0,1.98718,-95.389151,-94.216243)"
             id="g266">
            <path
               id="path209"
               style="font-style:normal;font-variant:normal;font-weight:bold;font-stretch:normal;font-size:10.5833px;line-height:1.25;font-family:Rubik;-inkscape-font-specification:'Rubik, Bold';font-variant-ligatures:normal;font-variant-caps:normal;font-variant-numeric:normal;font-variant-east-asian:normal;letter-spacing:0px;word-spacing:0px;fill:#000000;fill-opacity:1;stroke:none;stroke-width:0.264583"
               d="m 114.06962,108.61024 q -0.17992,0 -0.28575,-0.0953 -0.10583,-0.0952 -0.14817,-0.22225 l -2.15899,-6.77331 q -0.0212,-0.0529 -0.0212,-0.0952 0,-0.0847 0.0635,-0.14817 0.0741,-0.0741 0.16934,-0.0741 h 1.31233 q 0.16933,0 0.26458,0.0952 0.0953,0.0953 0.11641,0.17991 l 1.50283,4.88949 1.49225,-4.88949 q 0.0318,-0.0847 0.11641,-0.17991 0.0953,-0.0952 0.26459,-0.0952 h 1.32291 q 0.0847,0 0.14817,0.0741 0.0741,0.0635 0.0741,0.14817 0,0.0423 -0.0212,0.0952 l -2.15899,6.77331 q -0.0318,0.127 -0.13758,0.22225 -0.10584,0.0953 -0.29634,0.0953 z" />
            <path
               id="path211"
               style="font-style:normal;font-variant:normal;font-weight:bold;font-stretch:normal;font-size:10.5833px;line-height:1.25;font-family:Rubik;-inkscape-font-specification:'Rubik, Bold';font-variant-ligatures:normal;font-variant-caps:normal;font-variant-numeric:normal;font-variant-east-asian:normal;letter-spacing:0px;word-spacing:0px;fill:#000000;fill-opacity:1;stroke:none;stroke-width:0.264583"
               d="m 119.55176,108.61024 q -0.11642,0 -0.1905,-0.0741 -0.0741,-0.0847 -0.0741,-0.1905 v -6.87914 q 0,-0.11642 0.0741,-0.1905 0.0741,-0.0741 0.1905,-0.0741 h 1.41816 q 0.11641,0 0.1905,0.0741 0.0847,0.0741 0.0847,0.1905 v 6.87914 q 0,0.10584 -0.0847,0.1905 -0.0741,0.0741 -0.1905,0.0741 z" />
            <path
               id="path213"
               style="font-style:normal;font-variant:normal;font-weight:bold;font-stretch:normal;font-size:10.5833px;line-height:1.25;font-family:Rubik;-inkscape-font-specification:'Rubik, Bold';font-variant-ligatures:normal;font-variant-caps:normal;font-variant-numeric:normal;font-variant-east-asian:normal;letter-spacing:0px;word-spacing:0px;fill:#000000;fill-opacity:1;stroke:none;stroke-width:0.264583"
               d="m 125.4784,108.71607 q -1.05833,0 -1.75683,-0.29633 -0.6985,-0.30692 -1.05833,-0.79375 -0.35983,-0.48683 -0.381,-1.03716 0,-0.0847 0.0635,-0.14817 0.0741,-0.0741 0.16933,-0.0741 h 1.3335 q 0.14816,0 0.22225,0.0529 0.0847,0.0529 0.14816,0.13759 0.0847,0.15875 0.23284,0.30691 0.15875,0.14817 0.41275,0.24342 0.25399,0.0847 0.61383,0.0847 0.61383,0 0.92074,-0.19049 0.3175,-0.1905 0.3175,-0.51859 0,-0.24341 -0.16933,-0.39158 -0.16933,-0.14816 -0.55033,-0.26458 -0.37042,-0.127 -0.99483,-0.254 -0.80433,-0.16933 -1.37583,-0.43392 -0.56092,-0.27516 -0.85725,-0.70908 -0.29633,-0.4445 -0.29633,-1.10066 0,-0.64558 0.35983,-1.15358 0.37042,-0.508 1.02658,-0.79375 0.65617,-0.28575 1.55575,-0.28575 0.73024,0 1.28058,0.1905 0.56091,0.1905 0.94191,0.508 0.381,0.3175 0.5715,0.67733 0.20108,0.34925 0.21166,0.68792 0,0.0847 -0.0635,0.15875 -0.0529,0.0635 -0.15875,0.0635 h -1.39699 q -0.11642,0 -0.20108,-0.0423 -0.0847,-0.0423 -0.14817,-0.13758 -0.0635,-0.23283 -0.33867,-0.40216 -0.26458,-0.17992 -0.69849,-0.17992 -0.46567,0 -0.73025,0.16933 -0.254,0.15875 -0.254,0.49742 0,0.21166 0.13758,0.37041 0.14817,0.15875 0.47625,0.27517 0.33867,0.11641 0.92075,0.24341 0.96308,0.17992 1.55574,0.45509 0.59267,0.26458 0.86783,0.69849 0.28575,0.42334 0.28575,1.06892 0,0.71966 -0.41275,1.23824 -0.41274,0.51858 -1.13241,0.80433 -0.70908,0.27517 -1.65099,0.27517 z" />
            <path
               id="path215"
               style="font-style:normal;font-variant:normal;font-weight:bold;font-stretch:normal;font-size:10.5833px;line-height:1.25;font-family:Rubik;-inkscape-font-specification:'Rubik, Bold';font-variant-ligatures:normal;font-variant-caps:normal;font-variant-numeric:normal;font-variant-east-asian:normal;letter-spacing:0px;word-spacing:0px;fill:#000000;fill-opacity:1;stroke:none;stroke-width:0.264583"
               d="m 132.84435,108.71607 q -0.96308,0 -1.68274,-0.30692 -0.70908,-0.31749 -1.10066,-0.96308 -0.39159,-0.65616 -0.39159,-1.66157 v -4.31799 q 0,-0.11642 0.0741,-0.1905 0.0741,-0.0741 0.1905,-0.0741 h 1.36524 q 0.11642,0 0.1905,0.0741 0.0847,0.0741 0.0847,0.1905 v 4.3074 q 0,0.68792 0.32808,1.03717 0.32808,0.33866 0.93133,0.33866 0.59267,0 0.92075,-0.33866 0.33866,-0.34925 0.33866,-1.03717 v -4.3074 q 0,-0.11642 0.0741,-0.1905 0.0847,-0.0741 0.1905,-0.0741 h 1.37582 q 0.10584,0 0.17992,0.0741 0.0847,0.0741 0.0847,0.1905 v 4.31799 q 0,1.00541 -0.39158,1.66157 -0.39159,0.64559 -1.10067,0.96308 -0.70908,0.30692 -1.66158,0.30692 z" />
            <path
               id="path217"
               style="font-style:normal;font-variant:normal;font-weight:bold;font-stretch:normal;font-size:10.5833px;line-height:1.25;font-family:Rubik;-inkscape-font-specification:'Rubik, Bold';font-variant-ligatures:normal;font-variant-caps:normal;font-variant-numeric:normal;font-variant-east-asian:normal;letter-spacing:0px;word-spacing:0px;fill:#000000;fill-opacity:1;stroke:none;stroke-width:0.264583"
               d="m 136.81307,108.61024 q -0.0847,0 -0.15875,-0.0635 -0.0635,-0.0741 -0.0635,-0.15875 0,-0.0529 0.0106,-0.0953 l 2.48708,-6.79448 q 0.0317,-0.11642 0.127,-0.20108 0.10583,-0.0952 0.28575,-0.0952 h 1.56632 q 0.17992,0 0.27517,0.0952 0.10583,0.0847 0.13758,0.20108 l 2.4765,6.79448 q 0.0212,0.0423 0.0212,0.0953 0,0.0847 -0.0741,0.15875 -0.0635,0.0635 -0.15875,0.0635 h -1.30175 q -0.15875,0 -0.24341,-0.0741 -0.0741,-0.0847 -0.0953,-0.14816 l -0.41275,-1.0795 h -2.82574 l -0.40217,1.0795 q -0.0212,0.0635 -0.0952,0.14816 -0.0741,0.0741 -0.254,0.0741 z m 2.48707,-2.82574 h 1.9685 l -0.98425,-2.794 z" />
            <path
               id="path219"
               style="font-style:normal;font-variant:normal;font-weight:bold;font-stretch:normal;font-size:10.5833px;line-height:1.25;font-family:Rubik;-inkscape-font-specification:'Rubik, Bold';font-variant-ligatures:normal;font-variant-caps:normal;font-variant-numeric:normal;font-variant-east-asian:normal;letter-spacing:0px;word-spacing:0px;fill:#000000;fill-opacity:1;stroke:none;stroke-width:0.264583"
               d="m 145.07862,108.61024 q -0.11641,0 -0.1905,-0.0741 -0.0741,-0.0847 -0.0741,-0.1905 v -6.87914 q 0,-0.11642 0.0741,-0.1905 0.0741,-0.0741 0.1905,-0.0741 h 1.397 q 0.11641,0 0.1905,0.0741 0.0741,0.0741 0.0741,0.1905 v 5.54565 h 3.20674 q 0.11642,0 0.1905,0.0847 0.0741,0.0741 0.0741,0.1905 v 1.05833 q 0,0.10584 -0.0741,0.1905 -0.0741,0.0741 -0.1905,0.0741 z" />
            <path
               id="path221"
               style="font-style:normal;font-variant:normal;font-weight:bold;font-stretch:normal;font-size:10.5833px;line-height:1.25;font-family:Rubik;-inkscape-font-specification:'Rubik, Bold';font-variant-ligatures:normal;font-variant-caps:normal;font-variant-numeric:normal;font-variant-east-asian:normal;letter-spacing:0px;word-spacing:0px;fill:#000000;fill-opacity:1;stroke:none;stroke-width:0.264583"
               d="m 151.39683,108.61024 q -0.11641,0 -0.1905,-0.0741 -0.0741,-0.0847 -0.0741,-0.1905 v -6.87914 q 0,-0.11642 0.0741,-0.1905 0.0741,-0.0741 0.1905,-0.0741 h 1.41816 q 0.11642,0 0.1905,0.0741 0.0847,0.0741 0.0847,0.1905 v 6.87914 q 0,0.10584 -0.0847,0.1905 -0.0741,0.0741 -0.1905,0.0741 z" />
            <path
               id="path223"
               style="font-style:normal;font-variant:normal;font-weight:bold;font-stretch:normal;font-size:10.5833px;line-height:1.25;font-family:Rubik;-inkscape-font-specification:'Rubik, Bold';font-variant-ligatures:normal;font-variant-caps:normal;font-variant-numeric:normal;font-variant-east-asian:normal;letter-spacing:0px;word-spacing:0px;fill:#000000;fill-opacity:1;stroke:none;stroke-width:0.264583"
               d="m 154.48715,108.61024 q -0.11642,0 -0.1905,-0.0741 -0.0741,-0.0847 -0.0741,-0.20108 v -1.02658 q 0,-0.14817 0.0529,-0.24341 0.0635,-0.0952 0.10584,-0.13759 l 3.40782,-4.14865 h -3.20674 q -0.10584,0 -0.1905,-0.0741 -0.0741,-0.0741 -0.0741,-0.1905 v -1.04775 q 0,-0.11642 0.0741,-0.1905 0.0847,-0.0741 0.1905,-0.0741 h 5.34456 q 0.11642,0 0.1905,0.0741 0.0741,0.0741 0.0741,0.1905 v 1.02658 q 0,0.11642 -0.0423,0.20108 -0.0318,0.0847 -0.0953,0.15875 l -3.31257,4.15924 h 3.30199 q 0.11642,0 0.1905,0.0847 0.0847,0.0741 0.0847,0.1905 v 1.05833 q 0,0.10584 -0.0847,0.1905 -0.0741,0.0741 -0.1905,0.0741 z" />
            <path
               id="path225"
               style="font-style:normal;font-variant:normal;font-weight:bold;font-stretch:normal;font-size:10.5833px;line-height:1.25;font-family:Rubik;-inkscape-font-specification:'Rubik, Bold';font-variant-ligatures:normal;font-variant-caps:normal;font-variant-numeric:normal;font-variant-east-asian:normal;letter-spacing:0px;word-spacing:0px;fill:#000000;fill-opacity:1;stroke:none;stroke-width:0.264583"
               d="m 161.01704,108.61024 q -0.0847,0 -0.15875,-0.0635 -0.0635,-0.0741 -0.0635,-0.15875 0,-0.0529 0.0106,-0.0953 l 2.48707,-6.79448 q 0.0317,-0.11642 0.127,-0.20108 0.10583,-0.0952 0.28575,-0.0952 h 1.56633 q 0.17991,0 0.27516,0.0952 0.10584,0.0847 0.13759,0.20108 l 2.47649,6.79448 q 0.0212,0.0423 0.0212,0.0953 0,0.0847 -0.0741,0.15875 -0.0635,0.0635 -0.15875,0.0635 h -1.30174 q -0.15875,0 -0.24342,-0.0741 -0.0741,-0.0847 -0.0952,-0.14816 l -0.41275,-1.0795 h -2.82574 l -0.40216,1.0795 q -0.0212,0.0635 -0.0952,0.14816 -0.0741,0.0741 -0.254,0.0741 z m 2.48708,-2.82574 h 1.96849 l -0.98425,-2.794 z" />
            <path
               id="path227"
               style="font-style:normal;font-variant:normal;font-weight:bold;font-stretch:normal;font-size:10.5833px;line-height:1.25;font-family:Rubik;-inkscape-font-specification:'Rubik, Bold';font-variant-ligatures:normal;font-variant-caps:normal;font-variant-numeric:normal;font-variant-east-asian:normal;letter-spacing:0px;word-spacing:0px;fill:#000000;fill-opacity:1;stroke:none;stroke-width:0.264583"
               d="m 170.16099,108.61024 q -0.11641,0 -0.19049,-0.0741 -0.0741,-0.0847 -0.0741,-0.1905 v -5.48214 h -1.88383 q -0.11641,0 -0.19049,-0.0741 -0.0741,-0.0847 -0.0741,-0.1905 v -1.13241 q 0,-0.11642 0.0741,-0.1905 0.0741,-0.0741 0.19049,-0.0741 h 5.69382 q 0.11642,0 0.1905,0.0741 0.0741,0.0741 0.0741,0.1905 v 1.13241 q 0,0.10584 -0.0741,0.1905 -0.0741,0.0741 -0.1905,0.0741 h -1.88383 v 5.48214 q 0,0.10584 -0.0741,0.1905 -0.0741,0.0741 -0.1905,0.0741 z" />
            <path
               id="path229"
               style="font-style:normal;font-variant:normal;font-weight:bold;font-stretch:normal;font-size:10.5833px;line-height:1.25;font-family:Rubik;-inkscape-font-specification:'Rubik, Bold';font-variant-ligatures:normal;font-variant-caps:normal;font-variant-numeric:normal;font-variant-east-asian:normal;letter-spacing:0px;word-spacing:0px;fill:#000000;fill-opacity:1;stroke:none;stroke-width:0.264583"
               d="m 175.19864,108.61024 q -0.11642,0 -0.1905,-0.0741 -0.0741,-0.0847 -0.0741,-0.1905 v -6.87914 q 0,-0.11642 0.0741,-0.1905 0.0741,-0.0741 0.1905,-0.0741 h 1.41816 q 0.11642,0 0.1905,0.0741 0.0847,0.0741 0.0847,0.1905 v 6.87914 q 0,0.10584 -0.0847,0.1905 -0.0741,0.0741 -0.1905,0.0741 z" />
            <path
               id="path231"
               style="font-style:normal;font-variant:normal;font-weight:bold;font-stretch:normal;font-size:10.5833px;line-height:1.25;font-family:Rubik;-inkscape-font-specification:'Rubik, Bold';font-variant-ligatures:normal;font-variant-caps:normal;font-variant-numeric:normal;font-variant-east-asian:normal;letter-spacing:0px;word-spacing:0px;fill:#000000;fill-opacity:1;stroke:none;stroke-width:0.264583"
               d="m 181.38986,108.71607 q -0.97366,0 -1.69333,-0.3175 -0.71966,-0.3175 -1.12183,-0.9525 -0.40216,-0.64558 -0.44449,-1.60866 -0.0106,-0.45508 -0.0106,-0.91016 0,-0.46567 0.0106,-0.92075 0.0423,-0.9525 0.44449,-1.59808 0.41275,-0.65616 1.13242,-0.98424 0.73025,-0.32809 1.68274,-0.32809 0.96308,0 1.68275,0.32809 0.71966,0.32808 1.13241,0.98424 0.41275,0.64558 0.4445,1.59808 0.0212,0.45508 0.0212,0.92075 0,0.45508 -0.0212,0.91016 -0.0317,0.96308 -0.4445,1.60866 -0.40217,0.635 -1.12183,0.9525 -0.71966,0.3175 -1.69333,0.3175 z m 0,-1.524 q 0.56092,0 0.91017,-0.33866 0.35983,-0.33867 0.38099,-1.0795 0.0212,-0.46566 0.0212,-0.87841 0,-0.41275 -0.0212,-0.85725 -0.0212,-0.49741 -0.19049,-0.80433 -0.15875,-0.3175 -0.4445,-0.46566 -0.28575,-0.14817 -0.65617,-0.14817 -0.35983,0 -0.64558,0.14817 -0.28575,0.14816 -0.45508,0.46566 -0.16933,0.30692 -0.1905,0.80433 -0.0106,0.4445 -0.0106,0.85725 0,0.41275 0.0106,0.87841 0.0317,0.74083 0.381,1.0795 0.35983,0.33866 0.91016,0.33866 z" />
            <path
               id="path233"
               style="font-style:normal;font-variant:normal;font-weight:bold;font-stretch:normal;font-size:10.5833px;line-height:1.25;font-family:Rubik;-inkscape-font-specification:'Rubik, Bold';font-variant-ligatures:normal;font-variant-caps:normal;font-variant-numeric:normal;font-variant-east-asian:normal;letter-spacing:0px;word-spacing:0px;fill:#000000;fill-opacity:1;stroke:none;stroke-width:0.264583"
               d="m 186.16293,108.61024 q -0.11642,0 -0.1905,-0.0741 -0.0741,-0.0847 -0.0741,-0.1905 v -6.87914 q 0,-0.11642 0.0741,-0.1905 0.0741,-0.0741 0.1905,-0.0741 h 1.12183 q 0.17992,0 0.254,0.0847 0.0847,0.0741 0.10583,0.11642 l 2.58233,4.06399 v -4.00049 q 0,-0.11642 0.0741,-0.1905 0.0741,-0.0741 0.1905,-0.0741 h 1.27 q 0.11641,0 0.19049,0.0741 0.0741,0.0741 0.0741,0.1905 v 6.86856 q 0,0.11642 -0.0741,0.20108 -0.0741,0.0741 -0.19049,0.0741 h -1.13242 q -0.16933,0 -0.254,-0.0847 -0.0741,-0.0847 -0.0952,-0.11642 l -2.58232,-3.91582 v 3.85232 q 0,0.10584 -0.0741,0.1905 -0.0741,0.0741 -0.1905,0.0741 z" />
          </g>
        </g>
      </g>
      <g
         transform="translate(-9.5250003,-4.2333335)"
         id="g478">
        <text
           xml:space="preserve"
           style="font-style:normal;font-weight:normal;font-size:6.80245px;line-height:1.25;font-family:sans-serif;letter-spacing:0px;word-spacing:0px;fill:#000000;fill-opacity:1;stroke:none;stroke-width:0.170062"
           x="134.30632"
           y="162.16408"
           id="text336"><tspan
             sodipodi:role="line"
             id="tspan334"
             x="134.30632"
             y="162.16408"
             style="font-style:normal;font-variant:normal;font-weight:normal;font-stretch:normal;font-size:6.80245px;font-family:Rubik;-inkscape-font-specification:'Rubik, Normal';font-variant-ligatures:normal;font-variant-caps:normal;font-variant-numeric:normal;font-variant-east-asian:normal;stroke-width:0.170062">Powered by</tspan></text>
        <g
           id="g5281"
           transform="matrix(0.21245775,0,0,0.21245775,193.6301,119.53523)">
          <path
             style="fill:#06cdbe;stroke-width:1"
             d="m -34.907927,208.63548 c -2.217177,-1.46084 -4.542793,-3.426 -6.389788,-5.39942 l -1.251138,-1.33676 4.267224,-5.09549 4.267221,-5.09549 1.463294,1.71413 c 1.874459,2.19578 4.487868,4.36204 6.5561,5.43437 l 1.627262,0.8437 -4.113824,4.90845 c -2.262603,2.69964 -4.192321,5.00111 -4.288259,5.11438 -0.09594,0.11326 -1.058082,-0.37628 -2.138092,-1.08787 z m -16.118862,-16.79644 c 0,-0.766 -5.76091,-6.31663 -7.473849,-7.20104 -0.836401,-0.43184 -1.52101,-0.84527 -1.521356,-0.91873 -6.08e-4,-0.12658 7.314672,-8.96507 8.088669,-9.77293 0.316261,-0.3301 0.623432,-0.20536 2.28034,0.92605 1.053166,0.71914 3.192725,2.52754 4.754576,4.01867 l 2.839725,2.71115 -4.251319,5.09406 c -5.140802,6.15986 -4.716786,5.69756 -4.716786,5.14277 z"
             id="path5285"
             inkscape:connector-curvature="0" />
          <path
             style="fill:#4a4a4a;stroke-width:1"
             d="m 68.337368,213.00167 c -0.225509,-0.27173 -0.28838,-3.96185 -0.237929,-13.96532 l 0.06857,-13.59602 h 2.910417 c 2.81677,0 2.913136,0.0192 2.994964,0.59531 0.108347,0.76288 0.447183,0.75152 1.395968,-0.0468 1.512276,-1.2725 4.927492,-1.41688 7.087981,-0.29965 1.175748,0.60801 2.858913,2.6864 3.516691,4.34246 0.509151,1.28187 0.594977,2.00157 0.604137,5.066 0.0118,3.94711 -0.356722,5.61079 -1.668598,7.53292 -2.147295,3.14617 -6.552337,4.21384 -9.30339,2.25492 -0.407379,-0.29008 -0.86826,-0.52742 -1.024179,-0.52742 -0.187425,0 -0.30807,1.50176 -0.356031,4.43177 l -0.07254,4.43177 -2.804777,0.0747 c -2.148163,0.0572 -2.876531,-0.0118 -3.111278,-0.29461 z m 10.903641,-12.77733 c 0.918403,-0.91841 1.227172,-2.14176 1.227172,-4.86213 0,-2.854 -0.328345,-4.0198 -1.381831,-4.90625 -0.729507,-0.61384 -1.013871,-0.69023 -2.159506,-0.58015 -1.009946,0.097 -1.462632,0.29333 -1.930249,0.83696 -0.578295,0.67231 -0.610881,0.91797 -0.610881,4.60532 0,4.94345 0.32902,5.54132 3.072776,5.5836 0.835586,0.0129 1.24963,-0.14446 1.782519,-0.67735 z m -147.295237,12.17739 c -8.965638,-1.6197 -15.648152,-8.44721 -16.99883,-17.36767 -1.726447,-11.4022 4.870563,-21.3375 15.979235,-24.06522 3.163927,-0.7769 8.321061,-0.78098 11.167867,-0.009 2.157087,0.58507 6.087171,2.28125 6.082546,2.62516 -0.0016,0.11742 -1.840076,2.40814 -4.085547,5.09048 l -4.082677,4.87699 -2.992056,0.0178 c -2.713126,0.0162 -3.115385,0.0834 -4.314974,0.72179 -1.577179,0.83928 -2.759569,2.039 -3.608768,3.66164 -0.526976,1.00695 -0.623186,1.5784 -0.623636,3.70417 -6.35e-4,3.00273 0.504989,4.34951 2.269482,6.04499 2.159659,2.0752 6.062435,2.84052 9.156111,1.79549 3.527889,-1.1917 6.084703,-3.5599 13.749566,-12.73527 7.075485,-8.46984 9.91602,-11.12897 14.669197,-13.73233 6.329688,-3.46685 13.87784,-3.62355 20.500277,-0.42561 9.6372282,4.65377 14.0496343,15.62945 10.53142728,26.19648 -2.95005928,8.86059 -11.72872328,14.44084 -21.92907228,13.93946 -3.356358,-0.16498 -5.554713,-0.6756 -8.288652,-1.92526 -1.372172,-0.62721 -1.879682,-0.98505 -1.736844,-1.22465 0.110995,-0.18618 2.015992,-2.49392 4.233325,-5.12831 l 4.031517,-4.7898 1.277202,0.20702 c 1.503231,0.24367 4.305642,-0.1289 5.477611,-0.72822 2.8101,-1.43702 4.176922,-3.59462 4.348541,-6.86442 0.159626,-3.04125 -0.378995,-4.54049 -2.333345,-6.49484 -1.903537,-1.90354 -3.522445,-2.45429 -6.720599,-2.28634 -4.223377,0.22178 -6.59742,2.14719 -15.107616,12.25265 -6.928006,8.22668 -10.353361,11.50685 -14.639264,14.01875 -4.648737,2.72455 -10.31506,3.65309 -16.012024,2.6239 z m 97.32603,-6.82463 c -3.902038,-0.74354 -7.104086,-3.21629 -7.954936,-6.14311 -0.75125,-2.5842 -0.729234,-2.60494 2.857026,-2.69105 l 3.101722,-0.0745 0.153164,0.73593 c 0.482116,2.31656 1.613572,3.23871 4.231653,3.44886 2.654105,0.21305 4.328457,-1.04637 4.00892,-3.01544 -0.274334,-1.69052 -0.961925,-2.17558 -5.437572,-3.83592 -3.164893,-1.17408 -4.662651,-1.98847 -6.191387,-3.36651 -2.807992,-2.53119 -3.088045,-6.67451 -0.639181,-9.45656 1.975133,-2.24387 5.513398,-3.43953 9.444919,-3.19166 2.730595,0.17217 3.679116,0.43906 5.549051,1.56137 1.757712,1.05496 3.042862,2.68522 3.583895,4.54631 0.642702,2.21082 0.563846,2.27153 -2.950094,2.27153 h -3.020949 l -0.263496,-0.7276 c -0.734483,-2.02818 -1.687843,-2.71198 -3.781065,-2.71198 -2.304838,0 -3.615259,0.94232 -3.615259,2.59971 0,1.58415 1.08113,2.34636 5.688542,4.01046 3.231886,1.16729 4.905153,2.15745 6.336832,3.74982 2.050722,2.2809 2.536158,5.54919 1.210241,8.14821 -0.775245,1.5196 -2.708934,3.0762 -4.591002,3.6957 -2.145904,0.70635 -5.376628,0.89314 -7.721024,0.44641 z m 21.606595,0.0843 c -2.423893,-0.47667 -4.005376,-2.04767 -4.665458,-4.63455 -0.331169,-1.29786 -0.397434,-2.97104 -0.340556,-8.59896 l 0.07062,-6.98756 h 3.042709 3.042708 l 0.132292,7.23369 c 0.131852,7.2097 0.134363,7.23537 0.756915,7.73907 0.960744,0.77732 2.952702,0.68925 3.981,-0.17601 l 0.809768,-0.68137 0.07043,-7.05769 0.07043,-7.05769 h 3.042708 3.042708 v 9.92188 9.92187 l -2.821334,0.0749 -2.821331,0.0749 -0.176252,-0.80247 c -0.09694,-0.44135 -0.227354,-0.80247 -0.289812,-0.80247 -0.06246,0 -0.59481,0.34862 -1.183002,0.7747 -0.988499,0.71607 -3.099427,1.3816 -4.164521,1.31298 -0.247499,-0.016 -0.96751,-0.13076 -1.600023,-0.25515 z m 46.358999,-0.11075 c -2.08702,-0.4539 -3.052924,-0.966 -4.663432,-2.47244 -2.455513,-2.29685 -3.450645,-5.57341 -2.872761,-9.45882 0.837351,-5.62996 4.148331,-8.62232 9.555345,-8.63583 5.955222,-0.0149 9.260422,3.69222 9.260422,10.38645 0,1.38604 -0.094,1.82375 -0.41852,1.94826 -0.23018,0.0883 -3.02815,0.1606 -6.21771,0.1606 -6.394163,0 -6.297275,-0.0301 -5.198606,1.61452 0.813075,1.2171 2.116624,1.82545 3.897336,1.81884 1.42757,-0.005 3.44728,-0.68699 3.81943,-1.28914 0.37061,-0.59966 1.10819,-0.24336 2.19984,1.06268 0.61846,0.73993 1.12448,1.50111 1.12448,1.69153 0,0.9404 -3.28533,2.83701 -5.68163,3.27999 -1.93683,0.35804 -2.750664,0.33997 -4.804194,-0.10664 z m 4.889254,-12.38883 c 0.43398,-0.52291 -0.11039,-2.16955 -0.93052,-2.81466 -0.45981,-0.36168 -1.0799,-0.5412 -1.86943,-0.5412 -0.98669,0 -1.327095,0.14569 -2.065391,0.88398 -1.028192,1.0282 -1.439846,2.22846 -0.884843,2.57995 0.608476,0.38535 5.415664,0.29501 5.750184,-0.10807 z m 30.16859,12.52827 c -3.42188,-0.61662 -6.35984,-3.14181 -6.62905,-5.69767 l -0.0836,-0.79375 2.83701,-0.075 2.83701,-0.075 0.39461,0.94444 c 0.9831,2.35289 5.44075,2.22505 5.44075,-0.15603 0,-1.02733 -0.96452,-1.60777 -3.89148,-2.34187 -3.64537,-0.91428 -5.95092,-2.41076 -6.67563,-4.33299 -0.74292,-1.97054 -0.107,-4.56384 1.4809,-6.03908 3.0887,-2.86958 9.91374,-2.92044 13.26698,-0.0989 1.05639,0.88889 1.90464,2.47659 1.90464,3.56496 v 0.80429 h -3.02488 c -2.90677,0 -3.03196,-0.0233 -3.20629,-0.59532 -0.28604,-0.93863 -0.91128,-1.49713 -1.87935,-1.67874 -2.41836,-0.45369 -4.01785,2.22231 -1.98015,3.31285 0.26429,0.14144 1.68281,0.55465 3.15228,0.91824 3.08566,0.76347 4.38185,1.36144 5.55738,2.5638 1.09248,1.11742 1.46695,2.31405 1.3275,4.24201 -0.12814,1.77147 -0.59581,2.55794 -2.29785,3.86423 -1.85997,1.42749 -5.70172,2.17936 -8.53078,1.66956 z m 21.50931,-0.1343 c -5.52621,-1.25254 -8.54414,-6.28347 -7.46987,-12.45238 0.90608,-5.20312 4.31858,-8.1068 9.5427,-8.11985 3.84697,-0.01 6.50963,1.47898 8.03706,4.49322 1.08917,2.14936 1.65352,6.93693 0.90586,7.68459 -0.22796,0.22796 -1.98144,0.3175 -6.21771,0.3175 -6.43988,0 -6.32192,-0.0334 -5.37247,1.52378 0.81173,1.33134 1.9844,1.91464 3.83789,1.90901 1.55889,-0.005 3.56194,-0.65788 3.95172,-1.28857 0.36467,-0.59005 1.1012,-0.23414 2.13369,1.03108 0.58209,0.71327 1.05834,1.50496 1.05834,1.75931 0,0.25433 -0.50217,0.84545 -1.11593,1.31358 -2.38902,1.82216 -6.09876,2.55232 -9.29128,1.82873 z m 4.93332,-13.17428 c 0.23804,-2.8794 -4.31595,-3.60568 -5.60294,-0.89358 -0.46492,0.97976 -0.54239,1.55957 -0.24774,1.85422 0.10164,0.10165 1.4411,0.15126 2.97656,0.11025 l 2.79176,-0.0746 z m 14.95296,13.30307 c -2.14388,-0.45374 -3.17171,-1.24579 -3.96574,-3.05601 -0.37462,-0.85404 -0.48697,-2.15345 -0.60541,-7.00178 l -0.14542,-5.95312 -1.12448,-0.0814 -1.12448,-0.0814 v -2.08624 -2.08624 l 1.12448,-0.0814 1.12448,-0.0814 0.13229,-2.38125 0.13229,-2.38125 h 3.04271 3.04271 l 0.13229,2.38125 0.13229,2.38125 1.65365,0.0788 1.65364,0.0788 v 2.10404 2.10404 h -1.42281 c -0.91001,0 -1.53582,0.13617 -1.73635,0.3778 -0.22385,0.26971 -0.28989,1.78987 -0.23084,5.31349 0.0947,5.65221 0.10879,5.6858 2.38224,5.6858 h 1.27235 v 2.22027 c 0,2.14156 -0.0232,2.2261 -0.65474,2.38461 -1.24136,0.31156 -3.71374,0.39435 -4.81515,0.16124 z m -61.99886,-10.33132 v -10.06312 l 2.82795,0.0751 2.82795,0.0751 0.22232,0.8599 c 0.25172,0.97362 0.59164,1.09551 0.98829,0.35437 0.64023,-1.19629 3.28994,-2.12552 4.6195,-1.62002 l 0.7034,0.26743 -0.0754,2.71499 -0.0754,2.715 -2.04858,0.14533 c -1.48939,0.10566 -2.24772,0.29388 -2.77813,0.68954 l -0.72954,0.54421 -0.14395,6.5865 c -0.0792,3.62258 -0.16846,6.61627 -0.19843,6.65265 -0.03,0.0364 -1.42372,0.0661 -3.09721,0.0661 h -3.0427 z"
             id="path5283"
             inkscape:connector-curvature="0" />
        </g>
      </g>
    </g>
  </g>
</svg>
